<svg xmlns="http://www.w3.org/2000/svg" viewBox="0 0 52.17 63.65"><defs><style>.cls-1{fill:#1d1d1b;}</style></defs><g id="Camada_2" data-name="Camada 2"><g id="Camada_1-2" data-name="Camada 1"><path class="cls-1" d="M49.76,20.4a321.87,321.87,0,0,1-34.58-1.3,53.32,53.32,0,0,1-7.67-.9c-1.43-.34-2.75-1-2.5-2.67.32-2.15,2-4.06,3.48-5.57A17.63,17.63,0,0,1,13.81,6C17.36,4.38,22,4.56,24.72,7.67c2.52,2.9,2.7,7.25,2.65,10.89-.07,5.37-.57,10.75-.88,16.11L26,43.33a71.25,71.25,0,0,1-.6,7.72c-.42,2.45-1.22,5-3.26,6.58a4.31,4.31,0,0,1-4.79.64,9,9,0,0,1-3.54-4.65,27.12,27.12,0,0,1-1.7-8.36c-.19-3.2-5.19-3.22-5,0C7.42,50.69,8.61,57.08,12.73,61,17,65.09,23.28,64.26,27,59.84,31,55,30.7,48.06,31.05,42.09q.6-10.14,1.2-20.28c.28-5,.29-10.24-2-14.79A13.2,13.2,0,0,0,17,.07c-5.94.6-10.81,4.39-14.32,9C.93,11.43-.41,14.36.12,17.35.62,20.16,2.88,22,5.5,22.84c3.2,1,6.86,1,10.17,1.31q5.67.51,11.35.82,11.36.62,22.74.43c3.21,0,3.22-5,0-5Z"/><path class="cls-1" d="M47.27,15.4c3.22,0,3.23-5,0-5s-3.22,5,0,5Z"/></g></g></svg>